<?xml version="1.0" standalone="no"?>
<!DOCTYPE svg PUBLIC "-//W3C//DTD SVG 20010904//EN"
 "http://www.w3.org/TR/2001/REC-SVG-20010904/DTD/svg10.dtd">
<svg version="1.0" xmlns="http://www.w3.org/2000/svg"
 width="512.000000pt" height="512.000000pt" viewBox="0 0 512.000000 512.000000"
 preserveAspectRatio="xMidYMid meet">

<g transform="translate(0.000000,512.000000) scale(0.100000,-0.100000)"
fill="#3178c6" stroke="none">
<path d="M1187 4944 c-398 -72 -711 -372 -803 -769 -18 -75 -19 -143 -19
-1180 l0 -1100 24 -38 c13 -21 42 -50 64 -65 34 -23 52 -27 107 -27 55 0 73 4
107 27 22 15 51 44 64 65 l24 38 5 1090 5 1090 22 65 c33 96 90 185 163 254
79 74 162 120 266 146 75 19 115 20 1344 20 1229 0 1269 -1 1344 -20 201 -51
360 -200 429 -400 l22 -65 5 -1091 5 -1090 27 -41 c41 -63 90 -88 169 -88 54
0 72 5 106 27 22 15 51 44 64 65 l24 38 3 1070 c2 922 0 1081 -13 1158 -69
397 -351 703 -750 810 -80 21 -83 21 -1405 23 -1106 2 -1338 0 -1403 -12z"/>
<path d="M1292 4149 c-44 -13 -108 -79 -121 -126 -28 -99 -9 -145 106 -264
l96 -99 -96 -99 c-75 -77 -98 -108 -107 -142 -43 -157 92 -292 249 -249 34 9
65 32 142 107 l99 96 99 -96 c77 -75 108 -98 142 -107 157 -43 292 92 249 249
-9 34 -32 65 -107 142 l-96 99 96 99 c75 77 98 108 107 142 43 157 -92 292
-249 249 -34 -9 -65 -32 -142 -107 l-99 -96 -99 96 c-119 115 -168 135 -269
106z"/>
<path d="M3092 4149 c-44 -13 -108 -79 -121 -126 -28 -99 -9 -145 106 -264
l96 -99 -96 -99 c-75 -77 -98 -108 -107 -142 -43 -157 92 -292 249 -249 34 9
65 32 142 107 l99 96 99 -96 c77 -75 108 -98 142 -107 157 -43 292 92 249 249
-9 34 -32 65 -107 142 l-96 99 96 99 c75 77 98 108 107 142 43 157 -92 292
-249 249 -34 -9 -65 -32 -142 -107 l-99 -96 -99 96 c-119 115 -168 135 -269
106z"/>
<path d="M2440 2954 c-14 -2 -56 -9 -95 -15 -226 -37 -455 -157 -631 -333
-128 -128 -149 -163 -149 -246 0 -55 4 -73 27 -107 49 -75 138 -107 227 -83
33 9 57 26 95 68 132 145 231 219 357 266 196 73 382 73 578 0 126 -47 225
-121 357 -266 38 -42 62 -59 95 -68 89 -24 178 8 227 83 23 34 27 52 27 107 0
83 -21 118 -149 246 -171 170 -370 279 -608 330 -70 15 -307 27 -358 18z"/>
<path d="M452 1340 c-109 -29 -187 -74 -272 -160 -87 -86 -131 -163 -160 -276
-25 -98 -25 -190 0 -288 29 -113 73 -190 160 -276 86 -87 163 -131 276 -160
76 -20 118 -20 2104 -20 1986 0 2028 0 2104 20 113 29 190 73 276 160 87 86
131 163 160 276 25 98 25 190 0 288 -29 113 -73 190 -160 276 -86 87 -163 131
-276 160 -76 20 -117 20 -2108 19 -1967 0 -2033 -1 -2104 -19z m4171 -409 c21
-13 50 -42 65 -64 23 -34 27 -52 27 -107 0 -55 -4 -73 -27 -107 -15 -22 -44
-51 -65 -64 l-38 -24 -2025 0 -2025 0 -38 24 c-76 47 -111 140 -88 229 14 52
76 117 123 131 21 6 793 9 2043 8 l2010 -2 38 -24z"/>
</g>
</svg>
