<?xml version="1.0" standalone="no"?>
<!DOCTYPE svg PUBLIC "-//W3C//DTD SVG 20010904//EN"
 "http://www.w3.org/TR/2001/REC-SVG-20010904/DTD/svg10.dtd">
<svg version="1.0" xmlns="http://www.w3.org/2000/svg"
 width="512.000000pt" height="512.000000pt" viewBox="0 0 512.000000 512.000000"
 preserveAspectRatio="xMidYMid meet">

<g transform="translate(0.000000,512.000000) scale(0.100000,-0.100000)"
fill="#000000" stroke="none">
<path d="M4220 4727 c0 -2 -116 -287 -259 -635 l-258 -632 397 -2 398 -3 -129
-273 -129 -273 2 -190 3 -189 169 98 169 98 268 565 267 564 -408 5 -408 5
160 385 c88 212 168 406 179 433 l19 47 -220 0 c-121 0 -220 -1 -220 -3z"/>
<path d="M2371 3929 c-720 -81 -1425 -546 -2091 -1379 -100 -126 -205 -270
-264 -361 -16 -26 -15 -27 71 -150 262 -374 607 -751 936 -1020 545 -447 1135
-665 1676 -619 470 39 922 236 1375 600 337 271 691 656 970 1054 89 128 96
90 -56 294 -55 73 -104 132 -108 130 -5 -2 -82 -97 -171 -213 -253 -326 -346
-434 -573 -660 -232 -231 -341 -323 -549 -462 -455 -304 -912 -410 -1350 -312
-553 122 -1115 540 -1681 1248 -37 46 -65 87 -64 91 2 5 58 75 125 157 611
746 1214 1146 1817 1204 213 21 474 -18 691 -102 44 -17 88 -32 99 -33 15 -1
32 32 92 178 41 99 73 181 71 182 -9 10 -201 78 -289 104 -222 64 -522 92
-727 69z"/>
<path d="M2425 3299 c-412 -56 -766 -327 -915 -702 -188 -471 -53 -999 335
-1314 209 -169 454 -256 720 -256 312 0 588 114 805 333 451 453 450 1166 -4
1615 -161 160 -340 258 -558 306 -104 23 -287 31 -383 18z m336 -420 c128 -35
223 -92 324 -194 151 -150 219 -311 219 -520 0 -190 -66 -360 -192 -496 -151
-163 -331 -241 -552 -240 -242 1 -456 111 -596 308 -92 128 -136 266 -136 427
0 130 21 217 79 336 86 174 262 322 448 375 134 39 274 41 406 4z"/>
<path d="M2497 2550 c-116 -20 -229 -107 -284 -217 -26 -53 -28 -67 -28 -168
0 -102 2 -114 29 -168 65 -127 183 -207 320 -215 103 -6 172 10 245 59 184
123 230 369 104 552 -80 116 -242 181 -386 157z"/>
</g>
</svg>
